<svg xmlns="http://www.w3.org/2000/svg" viewBox="0 0 504 504"><defs><style>.cls-1{isolation:isolate;}.cls-2{fill:#fff;}.cls-3{fill:#34b9ad;}.cls-4{mix-blend-mode:multiply;}.cls-5{fill:#e1f0ff;}.cls-6{stroke:#000;stroke-miterlimit:10;stroke-width:2px;}.cls-7{fill:#00a651;}.cls-8,.cls-9{fill:#7d4921;}.cls-8{fill-rule:evenodd;}.cls-10{fill:#352311;}.cls-11{fill:#603813;}.cls-12{fill:#42210b;}.cls-13{fill:#21160e;}.cls-14{fill:#8bc543;}.cls-15{fill:#006738;}.cls-16{fill:#f2f2f2;}</style></defs><g class="cls-1"><g id="paper"><rect class="cls-2" x="63" y="58.5" width="504" height="504" transform="translate(-58.5 567) rotate(-90)"/></g><g id="Layer_2" data-name="Layer 2"><path class="cls-3" d="M251,483c-27-.81-47.05,3.31-47.05,34.08V562.5h82.13l.66-45.82S282.9,484,251,483Z" transform="translate(-63 -58.5)"/><g class="cls-4"><path class="cls-5" d="M502.91,304.39c-5.59-46.13-11.8-87.59-36.06-123-8.09-11.82-17.61-20.22-27.94-25.89-16.12-8.84-34.21-11-51.93-9.14-29.08,3.07-56.86,4.69-85.79,9-39.53,5.86-90.88-2.9-130.11,27.77-50.7,45.82-69.27,244.8-5.8,293,11.88,10.05,135.88,16.56,153.57,15.39,54.12-3.56,98.95-9.24,140.7-22.86C504.14,454,508.19,347.94,502.91,304.39Z" transform="translate(-63 -58.5)"/></g><path class="cls-6" d="M184.25,93.63h1c.91.45,1.36,1,1.36,1.6q0,7.6-.32,11.74l.32,16.52a2.11,2.11,0,0,1,.33,1.08c-.27.8-.37,1.21-.28,1.21q.27,6.66.44,25.44a23.94,23.94,0,0,0-.16,3.53l-1.13.77h-1.24l-1.25-1a21.08,21.08,0,0,1,.16-3.09q-.17-21.94-.44-25.48-6.39.12-6.51.16a49.56,49.56,0,0,1,.28,5.42c0,4.29-.06,8-.16,11.26.1,1.82.16,5.49.16,11a4.14,4.14,0,0,1-2,.72c-.59,0-1.14-.43-1.65-1.28v-1.61q0-6.56-.16-8.84c.11-2.63.16-5.84.16-9.65v-2.41c-.32-5.22-.48-8.87-.48-10.93q.48-17.92.48-22.75a6.43,6.43,0,0,1-.16-1.57l1.25-.92h1a2.51,2.51,0,0,1,1.49,2.09q0,3-.48,24.11v2.74l-.28-.57c.18,0,2.49-.12,6.91-.2-.08-3.37-.12-5.91-.12-7.59v-7.4a1.39,1.39,0,0,0-.24-.6l.24-.52q.15-7.56.16-12.1Z" transform="translate(-63 -58.5)"/><path class="cls-6" d="M204.23,97.93q5.46,0,8.24,22.42c.1,1.42.16,3.22.16,5.39v.64a7,7,0,0,1-.12,1.29,3.41,3.41,0,0,1,.12,1.28v.16a3.53,3.53,0,0,1-.12,1.29,6.53,6.53,0,0,1,.12.8q0,17.28-5.07,21.54a9.42,9.42,0,0,1-2.85.81h-1.29q-6.54-1.58-8.07-15.72l-.49-6.59q0-22.83,5.83-31.87A6.12,6.12,0,0,1,204.23,97.93Zm-5.75,32.79a47,47,0,0,0,2.37,15.67q2,3.95,3.06,3.94h.16c1.6,0,2.68-1.3,3.21-3.9q1.72-4.1,1.73-17.64v-3.21a82.18,82.18,0,0,0-3.34-21.51,8.79,8.79,0,0,0-1.6-2.77,1.7,1.7,0,0,0-1.13,1Q198.49,111.79,198.48,130.72Z" transform="translate(-63 -58.5)"/><path class="cls-6" d="M244.09,100.18h.85a1.71,1.71,0,0,1,1.49,1.16q-1.77,35.13-2.26,48.43c-.42,2.41-1.13,3.62-2.13,3.62h-.32q-1.65,0-4-8.68-4.22-13.64-4.22-14.31h1.81q-1.24,17.88-1.24,23.51l-1.13.76h-.84q-1.58,0-2.29-6.19-3.54-16.59-7-42.36a25.31,25.31,0,0,1-.76-3c0-.48.44-1,1.33-1.53h1q1.65,0,2.77,9.89,2.9,19,3.86,24.23l1.49,8h-1.69q1.29-20.53,1.93-22.22l1.49-.28q1.84,0,2.57,7,.76,3.81,4.14,14.87l1.16,4-1.36.68q1-28.41,2.29-46.9Z" transform="translate(-63 -58.5)"/><path class="cls-6" d="M292.2,100.66l1,1.2v.65q0,1.48-5.5,1.48h-4.5c.32,0,.49,0,.52-.12l.32,7.28c-.11.67-.16,1-.16,1.08q1.45,24.31,1.45,34.69a1.68,1.68,0,0,1,.16.8c-.11.16-.16.21-.16.16l.2,1.09c-.38.85-.89,1.28-1.53,1.28h-.64c-.46,0-1-.37-1.65-1.12a15.19,15.19,0,0,1,.16-1.81q0-3.42-1.45-34.69,0-5.05-.28-8.84l.37.2h-.17l-5.62.49a3.22,3.22,0,0,1-1.05-2.09c0-.46.51-.94,1.53-1.45l1.37.36c2.06-.19,3.52-.28,4.38-.28h6.59A35,35,0,0,0,292.2,100.66Z" transform="translate(-63 -58.5)"/><path class="cls-6" d="M308.4,97.93q5.46,0,8.23,22.42c.11,1.42.17,3.22.17,5.39v.64a6.27,6.27,0,0,1-.13,1.29,3.1,3.1,0,0,1,.13,1.28v.16a3.2,3.2,0,0,1-.13,1.29,5.5,5.5,0,0,1,.13.8q0,17.28-5.07,21.54a9.49,9.49,0,0,1-2.85.81h-1.29Q301,152,299.51,137.83l-.48-6.59q0-22.83,5.83-31.87A6.09,6.09,0,0,1,308.4,97.93Zm-5.75,32.79A47,47,0,0,0,305,146.39q2,3.95,3.05,3.94h.17q2.4,0,3.21-3.9,1.73-4.1,1.73-17.64v-3.21a82.18,82.18,0,0,0-3.34-21.51,8.79,8.79,0,0,0-1.6-2.77,1.7,1.7,0,0,0-1.13,1Q302.65,111.79,302.65,130.72Z" transform="translate(-63 -58.5)"/><path class="cls-6" d="M356.06,98.77l.92,1.17v.52c0,.37-.48.9-1.44,1.57h-2c-2.39,0-4,.87-4.82,2.61a21.47,21.47,0,0,0-1.25,7.55q0,2.53,2.21,8.36.72,1.45,8.52,8.52,4.22,6,4.22,11.86a21.7,21.7,0,0,1-2,9q-1.05,2.37-5.3,3.94a6.23,6.23,0,0,1-2.74.84,2.16,2.16,0,0,1-2.13-1.28v-.57c0-.77.83-1.24,2.49-1.4,3.06-1.15,4.59-2.35,4.59-3.58a16.48,16.48,0,0,0,1.44-7.35q0-5.84-5.22-11.38a29.52,29.52,0,0,1-6.51-6.39q-1.58-1.68-3.06-8.64a17.25,17.25,0,0,0-.16-2.13,21.68,21.68,0,0,1,2-9.52Q348.42,98.77,356.06,98.77Z" transform="translate(-63 -58.5)"/><path class="cls-6" d="M371.89,96.64q8.57,0,11.58,7.52a16.84,16.84,0,0,1,.68,3.85,79.23,79.23,0,0,1-3.58,22.31,12.4,12.4,0,0,1-5.3,4.9c-.83,0-1.25-.08-1.25-.32v.16a35,35,0,0,0,.16,3.54c-.1,1-.16,1.5-.16,1.6q.5,9.09.49,9.81c.32.05.48.7.48,1.93v.6a3.42,3.42,0,0,1-1.73,2.13h-.56c-.56,0-1.11-.41-1.65-1.24v-2.29c-.08-.46-.19-1.57-.32-3.34,0-.67,0-1,.12-1l-.44-6c.1-1.1.16-1.9.16-2.41-.11-2-.16-3-.16-3.26a1.34,1.34,0,0,1-.65-1.33c.24-.91.43-1.36.57-1.36-.16-2.28-.24-3.73-.24-4.34l.76-28.46c-.19,0-.28-.37-.28-1.12v-.48C370.57,97.66,371,97.18,371.89,96.64Zm2.58,3.42-.77,28.09c.11,2.25.16,3.65.16,4.22l-.4-.2c.72,0,1.62-.57,2.69-1.69q2.53-1.6,4.22-19.25c.11-1.93.16-3.2.16-3.82,0-2.54-1.44-4.84-4.34-6.87A9.85,9.85,0,0,0,374.47,100.06Z" transform="translate(-63 -58.5)"/><path class="cls-6" d="M398.82,97.6l.36.21c-.75,0-1.12-.08-1.12-.25q7.15.64,7.15,2v.28a1.91,1.91,0,0,1-1.89,1.49l-4.66-.48c-.22,0-.9,0-2.05.12l.08,1.13q0,2.64.76,20.45h.16a10.62,10.62,0,0,0,2-.16c2.52.22,4.51.32,5.95.32l.93,1.25v.68q0,1.29-1.65,1.29c-1,0-2.52-.11-4.66-.32-1.42.1-2.32.16-2.7.16v-.16q0,11.32,1.09,25.39c.13,0,.2.05.2.13q5-.28,6.43-.29A2.86,2.86,0,0,1,407,152.3v.32c0,.43-.43.91-1.29,1.45-4.26.11-6.82.21-7.67.32-2,0-3-.95-3-2.85q-1.12-15.36-1.12-25.6v-5.15q-.81-14.15-.81-19.05a22.15,22.15,0,0,1-.48-3l1.25-.92H396C396.6,97.81,397.53,97.74,398.82,97.6Z" transform="translate(-63 -58.5)"/><path class="cls-6" d="M420.68,98.21h.4q2.9,1.32,4.63,6.27,4.5,13.9,6.63,35.44a64.54,64.54,0,0,1,1.4,12.46c-.32.81-1.24,1.21-2.77,1.21-.64-1.24-1.39-5.72-2.25-13.47q-.36-1.25-1.53-10.08l-.36,0q-7.63.72-7.63,1v6.27l-1.09,14.71a2.07,2.07,0,0,1,.36,1.2c0,.46-.47,1-1.4,1.53-1.83,0-2.74-.87-2.74-2.61q1.25-17,1.25-20.34c-.11-1.47-.16-3-.16-4.5a181.9,181.9,0,0,1,1.93-24.59C418,99.68,419.08,98.21,420.68,98.21Zm.73,4.14q-2.06,7.88-2.05,22.86a11.28,11.28,0,0,0-.16,3.1v-.6a28.48,28.48,0,0,1,7.75-1.09v.6q0-4.81-5.3-23C421,102.75,420.9,102.13,421.41,102.35Z" transform="translate(-63 -58.5)"/><path class="cls-6" d="M455.33,95.84c1.36,0,2.21.44,2.53,1.32v.93q0,7.16-3.22,19-.64,3.09-2.49,10,1.89,0,7.76,15.88a62,62,0,0,1,2.29,10v.53c0,.45-.4.88-1.21,1.28h-1a2.32,2.32,0,0,1-1.53-2.09v-.16a4.1,4.1,0,0,0,0-1,63.55,63.55,0,0,0-4.26-13.75q-3.3-7.78-3.46-7.79l1.45,24-1.17.76h-1c-.51,0-1.11-.47-1.81-1.4v-.37a2.14,2.14,0,0,1,.32-1.12q-1.49-26-2.73-37.38-2.25-12.81-2.25-16.31V97.6c0-.42.44-.91,1.33-1.44h.64c.56,0,1.11.41,1.65,1.24v1q.48,4.57,2.89,21.66c.32,3.72.48,5.63.48,5.71h-1.65q5.43-21,5.43-25.72V98.41c0-.08-.07-.62-.2-1.61Z" transform="translate(-63 -58.5)"/><path d="M337.21,407.57h.2a.4.4,0,0,1,.36.28c-.28,5.68-.47,9.59-.54,11.74-.11.58-.28.87-.52.87h-.08c-.26,0-.59-.7-1-2.1-.68-2.2-1-3.36-1-3.47h.43q-.3,4.33-.3,5.7l-.27.18h-.2c-.26,0-.44-.5-.56-1.5q-.86-4-1.68-10.26a4,4,0,0,1-.19-.72c0-.12.11-.24.32-.37h.24c.26,0,.49.8.67,2.4.46,3.07.78,5,.93,5.87l.36,1.94H334a51.63,51.63,0,0,1,.47-5.39l.36-.07c.3,0,.51.57.62,1.7.13.61.46,1.81,1,3.6l.28,1-.33.17c.15-4.59.34-8.38.55-11.37Z" transform="translate(-63 -58.5)"/><path d="M340.15,406h.31a1.06,1.06,0,0,0,.64.24,2.74,2.74,0,0,1,1.36,1.21,7.36,7.36,0,0,1,.68,2.45v.39c0,1.75-.42,2.95-1.26,3.61,1,.23,1.58,1.61,1.76,4.13v1.49c0,.22,0,.57.05,1.06l-.28.18h-.3l-.29-.22c0-.58-.05-1-.05-1.26v-1.4a5.72,5.72,0,0,0-.86-2.89,1.48,1.48,0,0,0-.89-.5h.22q0,.64,0,1.05V417c.05,1.28.08,2,.08,2.18v.11a.52.52,0,0,1-.48.32c-.12,0-.27-.11-.45-.31l.05-.33c-.05-1.09-.08-1.81-.08-2.17V414.7c-.06,0-.14-.11-.23-.32v-.19c.1-.21.16-.31.18-.31-.12-3.43-.29-6-.5-7.64Zm.67.94c.14,1.76.27,3.9.39,6.44.7-.47,1.05-1.44,1.05-2.9V410a5.62,5.62,0,0,0-.82-2.51c-.36-.33-.62-.49-.77-.49Z" transform="translate(-63 -58.5)"/><path d="M346.67,407.14h.16c.34,0,.51.75.51,2.26v.51c0,.51-.07,1.82-.23,3.94a1,1,0,0,0,0,.28c0,1.37,0,2.46,0,3.26v2.53a3.7,3.7,0,0,0,.08.38c-.05.32-.19.47-.4.47h-.16c-.26,0-.4-.41-.4-1.24q0-6.76.24-9.32v-1.08a10.13,10.13,0,0,0-.12-1.63C346.35,407.39,346.46,407.27,346.67,407.14Z" transform="translate(-63 -58.5)"/><path d="M353.84,407.69l.25.29v.15c0,.24-.44.36-1.33.36h-1.09a.24.24,0,0,0,.13,0l.07,1.76c0,.16,0,.25,0,.26.24,3.93.35,6.73.35,8.41a.34.34,0,0,1,0,.19s0,.05,0,0l.05.26c-.09.21-.21.31-.37.31h-.15a.61.61,0,0,1-.4-.27,3.15,3.15,0,0,1,0-.44q0-.83-.35-8.4c0-.82,0-1.53-.07-2.14l.09,0h0l-1.37.12a.81.81,0,0,1-.25-.51c0-.11.12-.22.37-.35l.33.09c.5,0,.86-.07,1.06-.07h1.6A10,10,0,0,0,353.84,407.69Z" transform="translate(-63 -58.5)"/><path d="M359.84,407.69l.25.29v.15c0,.24-.44.36-1.33.36h-1.09c.08,0,.12,0,.12,0l.08,1.76c0,.16,0,.25,0,.26.24,3.93.35,6.73.35,8.41a.34.34,0,0,1,0,.19s0,.05,0,0l.05.26c-.09.21-.21.31-.37.31h-.15a.61.61,0,0,1-.4-.27,3.15,3.15,0,0,1,0-.44q0-.83-.35-8.4c0-.82,0-1.53-.07-2.14l.09,0h0l-1.37.12a.76.76,0,0,1-.25-.51c0-.11.12-.22.37-.35l.33.09c.5,0,.85-.07,1.06-.07h1.6A10,10,0,0,0,359.84,407.69Z" transform="translate(-63 -58.5)"/><path d="M363.67,407l.08,0c-.18,0-.27,0-.27-.05q1.74.15,1.74.48v.07a.47.47,0,0,1-.46.36l-1.13-.12-.5,0,0,.28c0,.43.06,2.08.19,4.95h0a2.31,2.31,0,0,0,.49,0c.61.06,1.09.08,1.44.08l.23.3v.17c0,.21-.14.31-.4.31a10.31,10.31,0,0,1-1.13-.08l-.65,0v0c0,1.83.08,3.89.26,6.16,0,0,.05,0,.05,0,.81-.05,1.33-.07,1.56-.07a.65.65,0,0,1,.42.35v.08c0,.1-.1.22-.31.35-1,0-1.65.05-1.86.08-.48,0-.73-.23-.73-.69q-.27-3.72-.27-6.21v-1.25c-.13-2.28-.2-3.82-.2-4.61a6.35,6.35,0,0,1-.11-.73l.3-.23H363C363.13,407,363.36,407,363.67,407Z" transform="translate(-63 -58.5)"/><path d="M367.83,406.94q.42,0,2,5.47.23,1.24,1.83,6.14h-.32v-.13c-.15-3.16-.22-4.93-.22-5.32,0-.12,0-.51.05-1.19,0-.07,0-.22,0-.46.05-.52.07-.92.07-1.22v-2.78c0-.27.21-.41.53-.41l.41.22q-.12,2.31-.12,3.42v1.1q0,3.39.22,8.85l-.39.19c-.33,0-1.35-2.92-3.07-8.78l-1-3.49.36.59,0-.57q.06.81.06,1.29v.33c-.05,1.44-.07,2.45-.07,3a64.21,64.21,0,0,0,.35,7.38h-.49c-.31,0-.46-.14-.46-.41-.15-2.27-.22-4.29-.22-6.09v-6.75A.42.42,0,0,1,367.83,406.94Z" transform="translate(-63 -58.5)"/><path d="M380.57,407.09h.1a2.44,2.44,0,0,1,1.12,1.52,42.14,42.14,0,0,1,1.61,8.59,16.11,16.11,0,0,1,.34,3c-.08.19-.3.29-.67.29a15,15,0,0,1-.55-3.26c-.06-.2-.18-1-.37-2.45h-.09a10.66,10.66,0,0,0-1.85.23v1.52l-.26,3.56a.5.5,0,0,1,.09.29c0,.12-.12.24-.34.37-.44,0-.67-.21-.67-.63.21-2.74.31-4.38.31-4.93,0-.35,0-.72,0-1.09a45.56,45.56,0,0,1,.46-6C379.91,407.45,380.18,407.09,380.57,407.09Zm.18,1a23.51,23.51,0,0,0-.5,5.55,3.05,3.05,0,0,0,0,.75v-.15a6.82,6.82,0,0,1,1.88-.26v.14a28.84,28.84,0,0,0-1.28-5.58Q380.55,408,380.75,408.09Z" transform="translate(-63 -58.5)"/><path d="M386.64,406.94q.41,0,2,5.47.23,1.24,1.83,6.14h-.32v-.13c-.15-3.16-.23-4.93-.23-5.32,0-.12,0-.51.05-1.19,0-.07,0-.22,0-.46,0-.52.08-.92.08-1.22v-2.78c0-.27.21-.41.52-.41l.41.22c-.07,1.54-.11,2.68-.11,3.42v1.1q0,3.39.21,8.85l-.39.19c-.32,0-1.35-2.92-3.07-8.78l-1-3.49.36.59,0-.57c.05.54.07,1,.07,1.29v.33c-.05,1.44-.08,2.45-.08,3a66.57,66.57,0,0,0,.35,7.38h-.49c-.3,0-.45-.14-.45-.41-.15-2.27-.23-4.29-.23-6.09v-6.75A.43.43,0,0,1,386.64,406.94Z" transform="translate(-63 -58.5)"/><path d="M392.82,406.44h.34a4.46,4.46,0,0,1,2.56,2.11,11.92,11.92,0,0,1,1.26,5.29v.2a8.07,8.07,0,0,1-2.87,6.39,2.45,2.45,0,0,1-.6.15c-.22,0-.36-.28-.41-.85l0-.08A26.48,26.48,0,0,1,393,417h-.07l.08.15V417c0-1,0-2,0-2.81Zm.93,1.07v-.25q0,4.39.16,6.93c0,.7,0,1.41,0,2.14v.47c0,1,0,1.87.1,2.66a7.5,7.5,0,0,0,1.25-1.65,8.83,8.83,0,0,0,.89-3.66v-.39a11.45,11.45,0,0,0-1.19-4.91C394.37,408,394,407.59,393.75,407.51Z" transform="translate(-63 -58.5)"/><path d="M404.77,407.14h.16c.34,0,.52.75.52,2.26v.51c0,.51-.08,1.82-.24,3.94a1,1,0,0,0,0,.28c0,1.37,0,2.46,0,3.26v2.53a3.7,3.7,0,0,0,.08.38c-.05.32-.19.47-.4.47h-.16c-.26,0-.39-.41-.39-1.24,0-4.51.07-7.62.23-9.32v-1.08a10.13,10.13,0,0,0-.12-1.63C404.45,407.39,404.56,407.27,404.77,407.14Z" transform="translate(-63 -58.5)"/><path d="M408.51,406.4h0c.14,0,.28.1.4.3s0,.44,0,.44l-.08-.16c.18,2.86.28,5.26.28,7.2a24.86,24.86,0,0,1,.11,2.62V420h1.86a.41.41,0,0,1,.36.27v.15c0,.24-.3.35-.9.35h-1.8q-.19,0-.39-.3v-.28a3.36,3.36,0,0,1,0-.47v-3.11c-.11-3.42-.21-6.26-.32-8.52l-.11-1.32A.48.48,0,0,1,408.51,406.4Z" transform="translate(-63 -58.5)"/><path d="M414.11,406.4h0c.14,0,.28.1.4.3s0,.44,0,.44l-.08-.16q.27,4.29.27,7.2a22,22,0,0,1,.12,2.62V420h1.86a.41.41,0,0,1,.36.27v.15c0,.24-.3.35-.9.35h-1.8c-.13,0-.27-.1-.39-.3v-.28a3.36,3.36,0,0,1,0-.47v-3.11c-.11-3.42-.21-6.26-.32-8.52l-.11-1.32A.48.48,0,0,1,414.11,406.4Z" transform="translate(-63 -58.5)"/><path d="M420,406.67h.23a.59.59,0,0,1,.38.51v.19q.35,6.33.85,10.19c.21,1.62.46,2.44.76,2.44a.55.55,0,0,0,.32-.55q0-1.53-.32-7.71c0-.76,0-1.48,0-2.18v-.93l0-.26,0-.09c0-.32-.06-.7-.12-1.14l.32-.23h.21c.26,0,.42.43.48,1.28,0,.18,0,.28,0,.28,0,.25,0,.48,0,.66v1.25l0,.24c0-.11,0-.17.05-.17,0,.44-.05.73-.05.86v.15q.32,6.78.31,8c-.08.88-.5,1.31-1.25,1.31s-1.41-1.3-1.65-3.91c-.28-2.23-.56-5.54-.83-9.95Z" transform="translate(-63 -58.5)"/><path d="M428.41,407.23l.22.28v.13c0,.09-.11.22-.35.38h-.47a1.17,1.17,0,0,0-1.17.63,5.32,5.32,0,0,0-.31,1.83,6.67,6.67,0,0,0,.54,2,15.72,15.72,0,0,0,2.06,2.06,5,5,0,0,1,1,2.87,5.27,5.27,0,0,1-.48,2.18,2.1,2.1,0,0,1-1.29.95,1.4,1.4,0,0,1-.66.2.51.51,0,0,1-.51-.31v-.13c0-.19.2-.31.6-.34q1.11-.42,1.11-.87a4,4,0,0,0-.91-4.54,7.06,7.06,0,0,1-1.58-1.55,5.09,5.09,0,0,1-.74-2.09c0-.14,0-.31,0-.52a5.22,5.22,0,0,1,.49-2.31A2.81,2.81,0,0,1,428.41,407.23Z" transform="translate(-63 -58.5)"/><path d="M435.54,407.69l.25.29v.15c0,.24-.44.36-1.33.36h-1.09c.07,0,.12,0,.12,0l.08,1.76c0,.16,0,.25,0,.26.24,3.93.35,6.73.35,8.41a.34.34,0,0,1,0,.19s0,.05,0,0l.05.26c-.09.21-.21.31-.37.31h-.16q-.16,0-.39-.27c0-.09,0-.24,0-.44,0-.55-.11-3.35-.35-8.4,0-.82,0-1.53-.06-2.14l.08,0h0l-1.36.12a.76.76,0,0,1-.25-.51c0-.11.12-.22.37-.35l.33.09c.5,0,.85-.07,1.06-.07h1.6A10,10,0,0,0,435.54,407.69Z" transform="translate(-63 -58.5)"/><path d="M437.77,406h.31a1.06,1.06,0,0,0,.64.24,2.74,2.74,0,0,1,1.36,1.21,7.36,7.36,0,0,1,.68,2.45v.39c0,1.75-.42,2.95-1.26,3.61,1,.23,1.58,1.61,1.76,4.13v1.49c0,.22,0,.57.05,1.06l-.28.18h-.3l-.29-.22c0-.58-.05-1-.05-1.26v-1.4a5.72,5.72,0,0,0-.86-2.89,1.48,1.48,0,0,0-.89-.5h.22q0,.64,0,1.05V417c.05,1.28.08,2,.08,2.18v.11a.52.52,0,0,1-.48.32c-.12,0-.27-.11-.45-.31l0-.33c0-1.09-.08-1.81-.08-2.17V414.7c-.06,0-.14-.11-.23-.32v-.19c.1-.21.16-.31.18-.31-.12-3.43-.29-6-.5-7.64Zm.67.94c.14,1.76.27,3.9.39,6.44.7-.47,1.05-1.44,1.05-2.9V410a5.62,5.62,0,0,0-.82-2.51c-.36-.33-.62-.49-.77-.49Z" transform="translate(-63 -58.5)"/><path d="M444.86,407.09H445a2.45,2.45,0,0,1,1.13,1.52,42.21,42.21,0,0,1,1.6,8.59,15.32,15.32,0,0,1,.34,3c-.08.19-.3.29-.67.29a14.59,14.59,0,0,1-.54-3.26c-.06-.2-.19-1-.37-2.45h-.09a10.45,10.45,0,0,0-1.85.23v1.52l-.27,3.56a.5.5,0,0,1,.09.29c0,.12-.11.24-.34.37q-.66,0-.66-.63c.2-2.74.3-4.38.3-4.93,0-.35,0-.72,0-1.09a44,44,0,0,1,.47-6C444.2,407.45,444.47,407.09,444.86,407.09Zm.17,1a23.61,23.61,0,0,0-.49,5.55,2.52,2.52,0,0,0,0,.75v-.15a6.77,6.77,0,0,1,1.88-.26v.14a28.38,28.38,0,0,0-1.29-5.58Q444.85,408,445,408.09Z" transform="translate(-63 -58.5)"/><path d="M454.53,407.69l.25.29v.15c0,.24-.44.36-1.33.36h-1.09c.07,0,.12,0,.12,0l.08,1.76c0,.16,0,.25,0,.26.24,3.93.35,6.73.35,8.41a.34.34,0,0,1,0,.19s0,.05,0,0l.05.26c-.09.21-.21.31-.37.31h-.15c-.12,0-.25-.09-.4-.27s0-.24,0-.44c0-.55-.11-3.35-.35-8.4,0-.82,0-1.53-.06-2.14l.08,0h0l-1.36.12a.76.76,0,0,1-.25-.51c0-.11.12-.22.37-.35l.33.09c.5,0,.85-.07,1.06-.07h1.6A10,10,0,0,0,454.53,407.69Z" transform="translate(-63 -58.5)"/><path d="M458.36,407l.08,0c-.18,0-.27,0-.27-.05,1.16.1,1.73.26,1.73.48v.07a.45.45,0,0,1-.45.36l-1.13-.12-.5,0,0,.28q0,.65.18,4.95h0a2.37,2.37,0,0,0,.49,0c.61.06,1.09.08,1.44.08l.23.3v.17c0,.21-.14.31-.4.31a10.31,10.31,0,0,1-1.13-.08l-.66,0v0c0,1.83.09,3.89.27,6.16,0,0,.05,0,.05,0,.81-.05,1.33-.07,1.55-.07a.64.64,0,0,1,.43.35v.08c0,.1-.1.22-.31.35-1,0-1.65.05-1.86.08-.49,0-.73-.23-.73-.69q-.27-3.72-.27-6.21v-1.25c-.13-2.28-.2-3.82-.2-4.61a4.6,4.6,0,0,1-.11-.73l.3-.23h.52C457.82,407,458,407,458.36,407Z" transform="translate(-63 -58.5)"/><path d="M462.05,406.44h.33a4.46,4.46,0,0,1,2.56,2.11,11.92,11.92,0,0,1,1.26,5.29v.2a8.07,8.07,0,0,1-2.87,6.39,2.45,2.45,0,0,1-.6.15c-.22,0-.36-.28-.41-.85l0-.08c-.07-.57-.13-1.47-.16-2.69h-.07l.08.15V417c0-1,0-2,0-2.81Zm.92,1.07v-.25q0,4.39.16,6.93c0,.7,0,1.41,0,2.14v.47c0,1,0,1.87.11,2.66a7.53,7.53,0,0,0,1.24-1.65,8.83,8.83,0,0,0,.89-3.66v-.39a11.45,11.45,0,0,0-1.19-4.91C463.59,408,463.21,407.59,463,407.51Z" transform="translate(-63 -58.5)"/><path d="M474.42,406.21c1,0,1.53.9,1.73,2.71v.76a7.39,7.39,0,0,1-1.32,3.07.79.79,0,0,0-.16.18v-.15a2.55,2.55,0,0,1,1.26,1.17,5.53,5.53,0,0,1,.72,2.45,6.74,6.74,0,0,1-.88,3.54,2.61,2.61,0,0,1-1.27.83h-.11c-.53,0-.79-.5-.79-1.5-.32-4.48-.47-7.92-.47-10.33-.05-.69-.13-1.38-.24-2.06A2.42,2.42,0,0,1,474.42,406.21Zm-.6,1a58.53,58.53,0,0,1,.3,6.86c.11,1.23.24,3.19.39,5.91l0,0a1.57,1.57,0,0,0,.83-1,7.39,7.39,0,0,0,.46-2.55q-.28-1.68-.45-1.68a2.29,2.29,0,0,0-1.06-1.29.7.7,0,0,1-.63-.39v-.21a6.83,6.83,0,0,0,1.63-3.12v-.59c-.12-1.44-.4-2.16-.85-2.16A.89.89,0,0,0,473.82,407.2Z" transform="translate(-63 -58.5)"/><path d="M482.7,407.61h.17c.13,0,.27.1.4.3v.1c-.21,1.86-.43,3.68-.67,5.44l0,.23V414a18.52,18.52,0,0,0-.43,3.67,27.61,27.61,0,0,1-.29,3l-.23.11h-.22a.56.56,0,0,1-.37-.36q.43-5.18.63-6.71a25.59,25.59,0,0,0-2.71-4.48.73.73,0,0,1-.37-.56v-.08c0-.1.11-.22.32-.35h.29a.7.7,0,0,1,.4.51,19.59,19.59,0,0,1,2.52,4h-.35c.27-2.36.47-4,.61-4.93Z" transform="translate(-63 -58.5)"/><path d="M368.6,430.14c1,0,1.53.91,1.73,2.72v.76a7.36,7.36,0,0,1-1.32,3.06.79.79,0,0,0-.16.18v-.15a2.55,2.55,0,0,1,1.26,1.17,5.53,5.53,0,0,1,.72,2.46,6.68,6.68,0,0,1-.88,3.53,2.63,2.63,0,0,1-1.27.84h-.11c-.53,0-.79-.5-.79-1.51-.32-4.47-.47-7.92-.47-10.32q-.07-1-.24-2.07A2.42,2.42,0,0,1,368.6,430.14Zm-.6,1a58.61,58.61,0,0,1,.3,6.87q.17,1.83.39,5.9l0,0a1.55,1.55,0,0,0,.83-1,7.48,7.48,0,0,0,.46-2.55c-.19-1.13-.34-1.69-.45-1.69a2.24,2.24,0,0,0-1.06-1.28.7.7,0,0,1-.63-.39v-.22a6.73,6.73,0,0,0,1.63-3.12v-.59c-.12-1.43-.4-2.15-.85-2.15A.88.88,0,0,0,368,431.13Z" transform="translate(-63 -58.5)"/><path d="M373.28,429.94h.31a1,1,0,0,0,.64.25,2.74,2.74,0,0,1,1.36,1.21,7.32,7.32,0,0,1,.68,2.44v.39c0,1.75-.42,3-1.26,3.61,1,.24,1.58,1.61,1.76,4.13v1.49c0,.22,0,.58.05,1.06l-.28.19h-.3l-.29-.23c0-.57-.05-1-.05-1.25v-1.4a5.76,5.76,0,0,0-.86-2.9,1.43,1.43,0,0,0-.88-.49h.21q0,.65,0,1.05V441c.05,1.28.08,2,.08,2.18v.12a.51.51,0,0,1-.48.31q-.18,0-.45-.3l.05-.33c-.05-1.09-.08-1.82-.08-2.18v-2.14c-.06,0-.14-.11-.23-.32v-.18c.1-.21.16-.32.18-.32-.12-3.42-.29-6-.5-7.63Zm.67.94q.21,2.64.39,6.45c.7-.48,1.05-1.44,1.05-2.91v-.54a5.55,5.55,0,0,0-.82-2.5c-.36-.33-.62-.5-.77-.5Z" transform="translate(-63 -58.5)"/><path d="M380.67,430.88l.09.05q-.27,0-.27-.06c1.15.1,1.73.27,1.73.49v.07a.47.47,0,0,1-.46.36l-1.13-.12-.5,0,0,.27c0,.43.07,2.08.19,5h0a3.34,3.34,0,0,0,.49,0c.61.05,1.09.08,1.44.08l.22.3v.16c0,.21-.13.32-.4.32s-.61,0-1.13-.08l-.65,0v0q0,2.74.26,6.15s.05,0,.05,0c.81,0,1.33-.07,1.56-.07a.76.76,0,0,1,.43.35v.08c0,.11-.11.22-.31.35-1,0-1.66.05-1.86.08-.49,0-.73-.23-.73-.69q-.28-3.72-.28-6.2V436.5c-.13-2.29-.19-3.83-.19-4.62a5.2,5.2,0,0,1-.12-.73l.3-.22H380C380.13,430.93,380.36,430.91,380.67,430.88Z" transform="translate(-63 -58.5)"/><path d="M386.37,431c.88,0,1.55,1.81,2,5.43,0,.35,0,.78,0,1.31v.15a1.55,1.55,0,0,1,0,.31.86.86,0,0,1,0,.32v0a.86.86,0,0,1,0,.32,1.52,1.52,0,0,1,0,.19q0,4.19-1.22,5.22a2.48,2.48,0,0,1-.7.2h-.31q-1.59-.39-1.95-3.81l-.12-1.6q0-5.53,1.41-7.72A1.43,1.43,0,0,1,386.37,431ZM385,438.9a11.46,11.46,0,0,0,.58,3.8c.32.64.56,1,.74,1h0c.39,0,.65-.32.78-1a13.48,13.48,0,0,0,.42-4.27v-.78a19.87,19.87,0,0,0-.81-5.21,2.12,2.12,0,0,0-.39-.67.38.38,0,0,0-.27.25A16.76,16.76,0,0,0,385,438.9Z" transform="translate(-63 -58.5)"/><path d="M390.9,430.87q.41,0,2,5.47.23,1.25,1.83,6.15h-.32v-.14c-.15-3.15-.22-4.93-.22-5.32,0-.11,0-.51.05-1.18,0-.08,0-.23,0-.47,0-.51.07-.92.07-1.22v-2.77c0-.28.21-.41.53-.41l.41.21q-.12,2.31-.12,3.42v1.1q0,3.39.22,8.85l-.39.2q-.49,0-3.07-8.79l-1-3.48.36.58,0-.56c0,.54.06,1,.06,1.28v.33c-.05,1.44-.07,2.45-.07,3a64.21,64.21,0,0,0,.35,7.38h-.49c-.31,0-.46-.13-.46-.41q-.22-3.39-.22-6.08v-6.76A.43.43,0,0,1,390.9,430.87Z" transform="translate(-63 -58.5)"/><path d="M407.64,431.5h.2c.15,0,.27.1.36.29-.28,5.67-.47,9.58-.54,11.73-.11.58-.28.88-.52.88h-.08c-.26,0-.59-.7-1-2.11-.68-2.2-1-3.35-1-3.46h.43c-.2,2.89-.3,4.78-.3,5.69l-.27.19h-.21c-.25,0-.43-.5-.55-1.5q-.85-4-1.69-10.27a7.15,7.15,0,0,1-.18-.72c0-.11.11-.24.32-.37h.23c.27,0,.49.8.68,2.4.46,3.07.78,5,.93,5.87l.36,1.94h-.41a52,52,0,0,1,.47-5.39l.36-.06c.3,0,.51.56.62,1.69.13.62.46,1.82,1,3.6l.28,1-.33.16c.15-4.59.34-8.38.55-11.36Z" transform="translate(-63 -58.5)"/><path d="M411.31,431.07h.15c.35,0,.52.76.52,2.26v.51c0,.51-.08,1.83-.23,3.94a1.06,1.06,0,0,0,0,.29c0,1.37,0,2.45,0,3.25v2.53a2.4,2.4,0,0,0,.07.38c-.05.32-.18.48-.4.48h-.15c-.27,0-.4-.42-.4-1.25q0-6.76.23-9.32v-1.08a11.5,11.5,0,0,0-.11-1.63C411,431.32,411.09,431.2,411.31,431.07Z" transform="translate(-63 -58.5)"/><path d="M415.05,430.33h0c.14,0,.27.1.4.31s0,.43,0,.43l-.07-.15c.18,2.86.27,5.25.27,7.2a22,22,0,0,1,.12,2.62v3.19h1.86a.41.41,0,0,1,.36.27v.16c0,.23-.31.35-.91.35h-1.79c-.14,0-.27-.1-.4-.3v-.29a2.26,2.26,0,0,1,0-.46l0-.27v-2.85c-.1-3.41-.21-6.26-.31-8.52l-.12-1.32A.5.5,0,0,1,415.05,430.33Z" transform="translate(-63 -58.5)"/><path d="M420.65,430.33h0c.14,0,.27.1.4.31s0,.43,0,.43l-.07-.15c.18,2.86.27,5.25.27,7.2a22,22,0,0,1,.12,2.62v3.19h1.86a.41.41,0,0,1,.36.27v.16c0,.23-.31.35-.91.35H421c-.14,0-.27-.1-.4-.3v-.29a2.26,2.26,0,0,1,0-.46l0-.27v-2.85c-.1-3.41-.21-6.26-.31-8.52l-.12-1.32A.5.5,0,0,1,420.65,430.33Z" transform="translate(-63 -58.5)"/><path d="M426.64,431.07h.15c.35,0,.52.76.52,2.26v.51c0,.51-.08,1.83-.24,3.94a1.67,1.67,0,0,0,0,.29c0,1.37,0,2.45,0,3.25v2.53a3.2,3.2,0,0,0,.08.38c0,.32-.18.48-.4.48h-.15c-.27,0-.4-.42-.4-1.25q0-6.76.23-9.32v-1.08a11.5,11.5,0,0,0-.11-1.63C426.32,431.32,426.42,431.2,426.64,431.07Z" transform="translate(-63 -58.5)"/><path d="M431.33,431h.1a2.42,2.42,0,0,1,1.12,1.51,42.21,42.21,0,0,1,1.6,8.59,15.4,15.4,0,0,1,.35,3c-.08.2-.31.3-.68.3a16.19,16.19,0,0,1-.54-3.27c-.06-.2-.18-1-.37-2.44h-.09A12.11,12.11,0,0,0,431,439v1.52l-.26,3.57a.48.48,0,0,1,.09.29c0,.11-.12.23-.35.37q-.66,0-.66-.63c.2-2.74.3-4.39.3-4.93,0-.36,0-.72,0-1.09a45.38,45.38,0,0,1,.47-6C430.67,431.38,430.94,431,431.33,431Zm.18,1a22.89,22.89,0,0,0-.5,5.54,2.52,2.52,0,0,0,0,.75v-.15a7.22,7.22,0,0,1,1.88-.26v.15a28.38,28.38,0,0,0-1.29-5.58C431.4,432.13,431.38,432,431.51,432Z" transform="translate(-63 -58.5)"/><path d="M437.17,430.8q.46.15,2.71,6.26h-.32q0-.26,2-6H442l.18.34v.42c-.07,2.33-.11,4.29-.11,5.9,0,.61.12,2.88.35,6.79l-.42.21q-.52,0-.76-6.55V433.6h.33a24.47,24.47,0,0,1-1.69,4.53c-.42,0-1.22-1.73-2.42-5.11h.3v-.08l.57,11.33-.4.21q-.54,0-.54-.42-.35-10.19-.69-13Z" transform="translate(-63 -58.5)"/><path d="M446.53,431.16l.23.28v.13c0,.09-.12.22-.35.38h-.48a1.17,1.17,0,0,0-1.17.63,5.32,5.32,0,0,0-.3,1.83,6.88,6.88,0,0,0,.53,2,15.43,15.43,0,0,0,2.07,2.06,5.06,5.06,0,0,1,1,2.88,5.22,5.22,0,0,1-.48,2.17,2.07,2.07,0,0,1-1.28.95,1.46,1.46,0,0,1-.66.21.54.54,0,0,1-.52-.31v-.14c0-.19.2-.3.6-.34q1.11-.42,1.11-.87a3.87,3.87,0,0,0,.35-1.78,4.05,4.05,0,0,0-1.26-2.76,7.26,7.26,0,0,1-1.58-1.54,5.31,5.31,0,0,1-.74-2.1,3.53,3.53,0,0,0,0-.51,5.16,5.16,0,0,1,.49-2.31A2.83,2.83,0,0,1,446.53,431.16Z" transform="translate(-63 -58.5)"/><path class="cls-2" d="M456.52,277.54c-4.31-25.87-9.1-49.12-27.78-69A59.4,59.4,0,0,0,407.22,194c-12.42-5-26.35-6.18-40-5.13-22.4,1.73-43.81,2.63-66.09,5-30.45,3.28-70-1.64-100.22,15.57-39,25.69-53.36,137.28-4.47,164.31,9.15,5.63,107.23,10.45,107.23,10.45s11.67,14.6,2.44,30.94c14.45-.06,32.57-29.54,32.57-29.54s52.28-8.41,84.44-16C457.46,361.46,460.58,302,456.52,277.54Z" transform="translate(-63 -58.5)"/><path class="cls-7" d="M233.68,310.87c0,.23-.1.34-.3.34q-2.74.3-11.75,1a.49.49,0,0,1-.2.05c-.13,0-.19-.12-.19-.34q1-12,1-25.07c0-.26-.07-.41-.2-.44H222a.41.41,0,0,0-.34.24q-4.41,6.71-8.13,13c-.06.19-.14.29-.24.29s-.22-.1-.35-.29q-1-1.23-10.52-14.94-.15-.24-.3-.24a.12.12,0,0,0-.09,0,.4.4,0,0,0-.2.4q-.65,16.54-.93,26.29c0,.26-.07.39-.2.39q-2,.39-5.82.79c-.2,0-1,.09-2.55.29l-3.67.49c-.33,0-.49-.13-.49-.39q.68-9.4,5.63-58.86c.06-.42.18-.63.34-.63s.28.14.44.44q6.12,10.43,10.14,16.45,2.1,3.07,8.52,13.41a.52.52,0,0,0,.39.25c.1,0,.2-.08.29-.25q.45-.78,5.24-9.79,1.62-3.23,5.36-10.35t5.07-9.82a1.36,1.36,0,0,1,.2-.44,6.48,6.48,0,0,1,.39-.61.46.46,0,0,1,.86,0,3.49,3.49,0,0,1,.27.81v.49q0,.11.24,6t.49,13.2c.16,4.85.28,8.24.34,10.16Q232.55,295.06,233.68,310.87Z" transform="translate(-63 -58.5)"/><path class="cls-7" d="M288.42,283.5a40.49,40.49,0,0,1-1.1,8.93,27.65,27.65,0,0,1-3,8q-6.22,11.26-18.95,11.26A19.9,19.9,0,0,1,249,304.06q-6.12-7.63-6.12-18.85a40.78,40.78,0,0,1,2.55-14.44,26.87,26.87,0,0,1,8-11.41,19.12,19.12,0,0,1,12.68-4.61A18.6,18.6,0,0,1,278.26,259,25.34,25.34,0,0,1,286,269.69,38.26,38.26,0,0,1,288.42,283.5Zm-11.95.73a36.73,36.73,0,0,0-.39-5.38,32.24,32.24,0,0,0-1.3-5.42,9.71,9.71,0,0,0-2.86-4.45,6.77,6.77,0,0,0-4.56-1.69q-6.32,0-9.37,4.85t-3.06,12.29q0,16.94,10.33,16.94,6,0,8.62-4.92A26,26,0,0,0,276.47,284.23Z" transform="translate(-63 -58.5)"/><path class="cls-7" d="M335.47,255.64c-.06,3.81-.18,9.22-.36,16.2s-.32,13.34-.42,19.05-.15,11.12-.15,16.21V311c0,.49-.14.78-.44.88a.45.45,0,0,1-.19,0,.81.81,0,0,1-.64-.4l-5.73-5.63q-4.31-4.2-6.41-6.31-2.2-2.31-6.32-6.76t-5.73-6.27a.41.41,0,0,0-.34-.24.12.12,0,0,0-.1,0,.22.22,0,0,0-.19.24.41.41,0,0,0,0,.15c.07.85.23,2.4.49,4.65s.43,3.61.49,4.06q1,8.43,2.11,16a.34.34,0,0,1-.39.39,48.8,48.8,0,0,0-5.88-.34c-1.66,0-3.38.08-5.14.24a.16.16,0,0,1-.1.05s-.06,0-.1-.1a.51.51,0,0,1-.09-.24q-.35-3.44-.74-10.24-.09-.93-.68-11.14c-.4-6.8-.67-11.95-.84-15.44,0-.13-.11-2.74-.34-7.81s-.44-8.7-.64-10.85a.55.55,0,0,1,.3-.54.37.37,0,0,1,.15,0,.55.55,0,0,1,.44.3l2.17,2.74q1.65,2.06,2.13,2.79A298.8,298.8,0,0,0,324,288.25a.42.42,0,0,0,.29.14.32.32,0,0,0,.15-.05.22.22,0,0,0,.19-.24.37.37,0,0,0,0-.2q-.68-14.92-2.3-32.26a.27.27,0,0,1,.3-.3c.88,0,1.94,0,3.18,0,2.41,0,5.5,0,9.25-.15C335.33,255.24,335.47,255.37,335.47,255.64Z" transform="translate(-63 -58.5)"/><path class="cls-7" d="M382.63,300.44l-.84,2.69c-.49,1.57-1,3.34-1.64,5.31s-.93,3.06-1,3.26-.33.29-.39.29q-19.68-1.41-30.9-3a.26.26,0,0,1-.29-.3q-1.23-19.34-1.32-37.5,0-4.41.19-14.64a.27.27,0,0,1,.3-.3q2-.2,7.73-.58l8.89-.64c2.1-.16,4.69-.42,7.76-.76s5.78-.71,8.13-1.1a.34.34,0,0,1,.39.39c0,.59,0,1.22-.05,1.89s-.08,1.4-.15,2.2-.09,1.44-.09,1.93c0,1.21.06,3,.19,5.39,0,.23-.1.34-.29.34q-3.44.2-10.24.2c-4.53,0-8,.06-10.42.19a.27.27,0,0,0-.3.3,28,28,0,0,0-.15,3.18c0,.65,0,1.34.05,2.06,0,1.14.05,2.15.05,3s0,1.6-.05,2.25c0,.2.13.3.4.3.78.06,1.84.13,3.18.19l2.2.1q4.26,0,12.68-.39h.1c.13,0,.2.1.2.29q-.1,2.5-1.32,10.14c0,.2-.1.29-.3.29-.82,0-2.48,0-5,.1-1.28,0-2.4.05-3.38.05s-1.76,0-2.45-.05-1.6,0-2.94-.05-2.37,0-3.08,0a.38.38,0,0,0-.39.3V298c0,.07.09.2.29.39q7.59,1,23.85,1.62A.34.34,0,0,1,382.63,300.44Z" transform="translate(-63 -58.5)"/><path class="cls-7" d="M434.87,259.16q-2.49,3.38-7.1,10.23-2.75,3.87-7.24,11t-6.12,9.52a1.65,1.65,0,0,0-.2.93q-.1,3.63-.25,10.72t-.14,9.94a.35.35,0,0,1-.39.4q-8.52-.5-11.17-.84c-.23,0-.34-.06-.34-.19a.49.49,0,0,1,.05-.2q1.41-14,1.42-20.47a2.24,2.24,0,0,0-.3-1q-1.41-3.09-5.77-10.63t-5.49-9.45l-2.25-3.79c-1.31-2.21-2.25-3.88-2.84-5a.23.23,0,0,1-.05-.15v-.1q0-.15.15-.15,1.71-.78,5.73-2.39c2.67-1.08,4.31-1.75,4.89-2a.45.45,0,0,1,.25-.1c.1,0,.15.07.15.2q1.22,3,5.43,11.45t5.93,12.39c.13.2.24.3.34.3s.18-.1.24-.3q.78-1.37,13-24.73a.17.17,0,0,1,.19-.19.92.92,0,0,1,.25.05q5.67,2.1,11.41,3.91a.45.45,0,0,1,.24.4A.93.93,0,0,1,434.87,259.16Z" transform="translate(-63 -58.5)"/><path class="cls-3" d="M231.85,486.51a48.73,48.73,0,0,0-30.73,18.6c-10.2,13.55-13.93,50.83-13.93,50.83l22.24,2.41,6.32-35.92S217.9,496.92,231.85,486.51Z" transform="translate(-63 -58.5)"/><path class="cls-3" d="M253.92,488.33S278.23,490,288.71,508c9.47,16.31,12.46,44.61,12.46,44.61L279.49,559,271,524.25S270.4,499.29,253.92,488.33Z" transform="translate(-63 -58.5)"/><path class="cls-8" d="M256.76,488.61s-13.36,7.1-25.75-.28c.09-8,.21-14.82.21-14.82l25.75.28Z" transform="translate(-63 -58.5)"/><rect class="cls-9" x="192.93" y="429.22" width="26.71" height="16.78" rx="3.91" transform="translate(-296.53 580.65) rotate(-89.38)"/><rect class="cls-9" x="268.64" y="430.03" width="26.71" height="16.78" rx="3.91" transform="translate(-222.46 657.16) rotate(-89.38)"/><path class="cls-9" d="M245.77,480.71l-5.35-.06c-16.93-.18-34.45-14.22-34.26-31.15l.51-47.34a30.87,30.87,0,0,1,31.11-30.45l14.14.16A30.86,30.86,0,0,1,282.37,403l-.45,42.36A35.87,35.87,0,0,1,245.77,480.71Z" transform="translate(-63 -58.5)"/><path class="cls-10" d="M247.24,441.66s7.64,8.41-2.6,10.17C244.64,451.83,258.9,451.67,247.24,441.66Z" transform="translate(-63 -58.5)"/><path d="M294.9,400.43c1.09-2.34,1.76-5.09.47-7.18a6.54,6.54,0,0,1-.54-5.94,6,6,0,0,0-1.6-6.5,3.42,3.42,0,0,1-.93-3.71c.91-3.51,0-6.26-3-8.34a4.27,4.27,0,0,1-1.89-3.68c0-3.25-1.9-5.37-4.76-6.74a5.51,5.51,0,0,0-1.54-.61,4.21,4.21,0,0,1-3.12-2.29,9.24,9.24,0,0,0-9.06-4.88,8.9,8.9,0,0,1-6.84-2.21,6.71,6.71,0,0,0-6.28-1.69,23.37,23.37,0,0,0-3.77,1.3,11,11,0,0,1-7,.89,11,11,0,0,1-6.95-1,22.31,22.31,0,0,0-3.75-1.38,6.71,6.71,0,0,0-6.31,1.55A8.87,8.87,0,0,1,221.2,350a9.24,9.24,0,0,0-9.16,4.68,4.2,4.2,0,0,1-3.17,2.23,5.51,5.51,0,0,0-1.55.57c-2.89,1.31-4.82,3.39-4.91,6.64a4.24,4.24,0,0,1-2,3.64c-3,2-4,4.74-3.15,8.27a3.41,3.41,0,0,1-1,3.69,6,6,0,0,0-1.74,6.47,6.53,6.53,0,0,1-.68,5.92c-1.32,2.07-.72,4.83.32,7.19a12.07,12.07,0,0,1,1.08,2.12,5.12,5.12,0,0,1,.27,2.59,7.88,7.88,0,0,0,1.46,8.23,2.05,2.05,0,0,1,.11,2.8,6.76,6.76,0,0,0-.6,6.18,6,6,0,0,0,3,3.55,13.83,13.83,0,0,1,2.4,1.1,5.3,5.3,0,0,1,3.92-1.32c1.59-.09,1.92.09,2.36,1.74.68,2.29,1.25,4.57,1.82,6.84.38,1.28.74,2.67,1.14,3.83a1.59,1.59,0,0,0,2.13,1c1-.31.77-1,.52-1.6-.41-1.77-1.09-3.46-1.39-5.2-2-8.57-3.63-17.2-2.91-26.14A61.2,61.2,0,0,1,211,393.7a17.65,17.65,0,0,1,8.84-11.14c4.42-2.49,9.4-3.31,14.28-3.54a84,84,0,0,1,10.64,0,83.83,83.83,0,0,1,10.63.19c4.87.34,9.83,1.26,14.2,3.85a17.64,17.64,0,0,1,8.6,11.33,62.34,62.34,0,0,1,1.26,11.37c.52,8.95-1.3,17.54-3.49,26.07-.33,1.73-1,3.41-1.5,5.16-.26.64-.52,1.29.49,1.61a1.57,1.57,0,0,0,2.15-.93c.42-1.15.81-2.53,1.22-3.8.62-2.26,1.24-4.52,2-6.8.48-1.64.81-1.81,2.4-1.69a5.31,5.31,0,0,1,3.89,1.41,12.74,12.74,0,0,1,2.42-1.05,5.92,5.92,0,0,0,3.08-3.49,6.71,6.71,0,0,0-.46-6.19,2.05,2.05,0,0,1,.17-2.79,7.86,7.86,0,0,0,1.64-8.2,5,5,0,0,1,.33-2.58A11.1,11.1,0,0,1,294.9,400.43Z" transform="translate(-63 -58.5)"/><path class="cls-10" d="M234.69,462.66h0a.86.86,0,0,1,0-1.21h0a.85.85,0,0,1,1.21,0h0c1.9,1.92,6.35,3.77,10.77,3.76h0c4.42,0,8.87-1.84,10.76-3.75h0a.86.86,0,0,1,1.22,0h0a.86.86,0,0,1,0,1.21h0c-2.4,2.36-7.1,4.23-12,4.25h0c-4.89,0-9.58-1.89-12-4.25Z" transform="translate(-63 -58.5)"/><path d="M270.11,413a12.18,12.18,0,0,0-8-2.85h0a9.73,9.73,0,0,0-5.34,1.35h0a1.1,1.1,0,0,1-1.56-.25h0a1.1,1.1,0,0,1,.25-1.56h0a11.74,11.74,0,0,1,6.65-1.78h0a14.44,14.44,0,0,1,9.5,3.4h0a1.11,1.11,0,0,1,.11,1.58h0a1.16,1.16,0,0,1-.85.38h0a1.12,1.12,0,0,1-.73-.27Z" transform="translate(-63 -58.5)"/><path d="M221.65,412.9a1.11,1.11,0,0,1,.11-1.58h0a14.39,14.39,0,0,1,9.49-3.4h0a11.77,11.77,0,0,1,6.66,1.78h0a1.11,1.11,0,0,1,.25,1.56h0a1.11,1.11,0,0,1-1.56.25h0a9.79,9.79,0,0,0-5.35-1.35h0a12.2,12.2,0,0,0-8,2.84h0a1.1,1.1,0,0,1-.74.28h0a1.12,1.12,0,0,1-.84-.38Z" transform="translate(-63 -58.5)"/><path class="cls-2" d="M236.75,432.13c0,4.35-3,7.87-6.73,7.87s-6.73-3.52-6.73-7.87,3-7.88,6.73-7.88S236.75,427.78,236.75,432.13Z" transform="translate(-63 -58.5)"/><path class="cls-11" d="M235.32,432.15c0,3.37-2.27,6.11-5.07,6.11s-5.08-2.74-5.08-6.11,2.27-6.12,5.08-6.12S235.32,428.77,235.32,432.15Z" transform="translate(-63 -58.5)"/><path class="cls-12" d="M234,432.15c0,2.51-1.69,4.55-3.78,4.55s-3.78-2-3.78-4.55,1.69-4.56,3.78-4.56S234,429.63,234,432.15Z" transform="translate(-63 -58.5)"/><path class="cls-2" d="M228.86,435.39a1.21,1.21,0,1,0,1.21-1.21A1.22,1.22,0,0,0,228.86,435.39Z" transform="translate(-63 -58.5)"/><path d="M227.43,424.77a6.88,6.88,0,0,1,2.59-.52c3.27,0,6,2.73,6.6,6.35a7,7,0,0,0-13.2,0,8.6,8.6,0,0,1,1.25-3.22h0C223.56,427.54,226.07,425.33,227.43,424.77Z" transform="translate(-63 -58.5)"/><path class="cls-2" d="M256.36,432.13c0,4.35,3,7.87,6.73,7.87s6.73-3.52,6.73-7.87-3-7.88-6.73-7.88S256.36,427.78,256.36,432.13Z" transform="translate(-63 -58.5)"/><path class="cls-11" d="M257.79,432.15c0,3.37,2.28,6.11,5.08,6.11s5.07-2.74,5.07-6.11-2.27-6.12-5.07-6.12S257.79,428.77,257.79,432.15Z" transform="translate(-63 -58.5)"/><path class="cls-12" d="M259.09,432.15c0,2.51,1.69,4.55,3.78,4.55s3.78-2,3.78-4.55-1.69-4.56-3.78-4.56S259.09,429.63,259.09,432.15Z" transform="translate(-63 -58.5)"/><path d="M265.68,424.77a6.8,6.8,0,0,0-2.59-.52c-3.27,0-6,2.73-6.6,6.35a7,7,0,0,1,13.2,0,8.44,8.44,0,0,0-1.25-3.22h0C269.55,427.54,267.05,425.33,265.68,424.77Z" transform="translate(-63 -58.5)"/><path class="cls-2" d="M261.73,435.39a1.22,1.22,0,1,0,2.43,0,1.22,1.22,0,0,0-2.43,0Z" transform="translate(-63 -58.5)"/><path class="cls-13" d="M287.45,417.52c-.22-2.92-5.44-2.69-5.44-2.69A40.34,40.34,0,0,0,250,417.52a11.05,11.05,0,0,0-1.24.6,11.77,11.77,0,0,1-2.78.35,11.63,11.63,0,0,1-4.51-1,40.34,40.34,0,0,0-32.06-2.69s-5.22-.23-5.44,2.69,1.57,1.8,2.24,6.74,1.69,16.64,17.53,17.12c17.24.52,18.63-14.6,18.63-14.6s1.08-2.83,2.39-2.95h1.95c1.31.12,2.39,2.95,2.39,2.95s1.39,15.12,18.63,14.6c15.84-.48,16.86-12.18,17.53-17.12S287.68,420.44,287.45,417.52Zm-51.3,16.39c-3.64,5.07-18.4,7.69-23.58.84-4.89-6.45-4.32-15.33-2.59-16.33,12.25-7.08,28.14-.39,29.26,1.35S239.86,428.74,236.15,433.91Zm42.65.84c-5.18,6.85-19.94,4.23-23.58-.84s-4.21-12.41-3.09-14.14,17-8.43,29.26-1.35C283.12,419.42,283.69,428.3,278.8,434.75Z" transform="translate(-63 -58.5)"/><path class="cls-9" d="M321,508.14c6.45,4.65,7.64,13.62-4.77,16.37a101.28,101.28,0,0,1,3.27-17.31A14.91,14.91,0,0,1,321,508.14Z" transform="translate(-63 -58.5)"/><path class="cls-9" d="M166.36,508.14c-6.45,4.65-7.64,13.62,4.77,16.37a101.28,101.28,0,0,0-3.27-17.31A14.91,14.91,0,0,0,166.36,508.14Z" transform="translate(-63 -58.5)"/><path class="cls-9" d="M183,514.26a7.36,7.36,0,0,0-13.28,6.36l20,41.88H207Z" transform="translate(-63 -58.5)"/><path class="cls-9" d="M315.17,510.8a7.35,7.35,0,0,0-9.82,3.46l-24,48.24h17.25l20.06-41.88A7.36,7.36,0,0,0,315.17,510.8Z" transform="translate(-63 -58.5)"/><path class="cls-14" d="M305.88,536.37q21.6-29.11-.56-58.13a346.73,346.73,0,0,1-124.45,1.51q-20.76,28,.54,55.9A347.4,347.4,0,0,1,305.88,536.37Z" transform="translate(-63 -58.5)"/><path class="cls-15" d="M306.46,537.86l-.83-.15a357.35,357.35,0,0,0-62.18-6,342.68,342.68,0,0,0-61.8,5.24l-.82.15-.5-.66c-14.52-19.1-14.71-38.46-.55-57.54l.49-.67.82.14a354.59,354.59,0,0,0,62.13,4.85,343.58,343.58,0,0,0,61.84-6.35l.83-.17.51.68c15.1,19.83,15.29,39.93.57,59.76ZM241.28,529h2.19a359.81,359.81,0,0,1,61.81,5.85c6.65-9.19,10-18.46,9.88-27.58s-3.6-18.38-10.42-27.56A346.08,346.08,0,0,1,243.26,486a356.25,356.25,0,0,1-61.79-4.75c-6.37,8.82-9.56,17.72-9.47,26.48s3.46,17.64,10,26.46A344.68,344.68,0,0,1,241.28,529Z" transform="translate(-63 -58.5)"/><path class="cls-15" d="M243.48,525.88c13.45.16,27.91-7.65,28.15-18.45-.39-10.78-14.9-18.52-28.33-18.3s-27.73,7.88-28,18.45C215.72,518.14,230,525.88,243.48,525.88Z" transform="translate(-63 -58.5)"/><path class="cls-15" d="M196.83,482.05q-8-1-16-2.3a54.84,54.84,0,0,0-8.05,14.87A27,27,0,0,0,196.83,482.05Z" transform="translate(-63 -58.5)"/><path class="cls-14" d="M233.29,506.57c1.7,1,4.48,1.74,8.32,2.22a38.85,38.85,0,0,1,7.31,1.34c1,.41,1.55,1,1.54,1.89,0,1.91-2.17,2.84-6.39,2.84-4.49,0-7-1.12-7.62-3.38l-7.08.41c1.41,4.34,6.37,6.41,14.65,6.42a25.26,25.26,0,0,0,9.29-1.6c2.75-1.08,4.23-2.65,4.29-4.7a4.71,4.71,0,0,0-2.53-4.27c-1.73-1.09-4.45-1.85-8.13-2.3a53.72,53.72,0,0,1-7.34-1.21c-1.22-.36-1.82-.94-1.81-1.75,0-1.31,1.89-2,5.61-2s5.69.66,5.91,2.06l7.16-.23c-.59-3.64-5-5.34-13-5.28-4,0-7.14.57-9.33,1.68s-3.34,2.47-3.38,4.09S231.58,505.56,233.29,506.57Z" transform="translate(-63 -58.5)"/><path class="cls-14" d="M247.1,497.45c0-1.35-.09-2.7-.15-4-2.14,0-4.28,0-6.42,0,0,1.35,0,2.7,0,4C242.69,497.49,244.89,497.47,247.1,497.45Z" transform="translate(-63 -58.5)"/><path class="cls-14" d="M247.1,521.59c.05-1.35.08-2.7.1-4.05h-6.6c0,1.34.05,2.69.08,4C242.82,521.57,245,521.57,247.1,521.59Z" transform="translate(-63 -58.5)"/><path class="cls-15" d="M196.73,532.57c-4.33-7.4-13.84-13.07-24-12.49a54.91,54.91,0,0,0,8,14.84Q188.75,533.57,196.73,532.57Z" transform="translate(-63 -58.5)"/><path class="cls-15" d="M306.55,535.6a55.33,55.33,0,0,0,8-15.47,27.07,27.07,0,0,0-24.17,13Q298.47,534.18,306.55,535.6Z" transform="translate(-63 -58.5)"/><path class="cls-15" d="M314,493.67a58.94,58.94,0,0,0-8.67-15.43q-7.9,1.54-15.83,2.72A27.51,27.51,0,0,0,314,493.67Z" transform="translate(-63 -58.5)"/><path class="cls-15" d="M197,512.13c3.48-.08,6.1-2.1,6.09-4.52s-2.67-4.43-6.16-4.48-6.54,2-6.52,4.52S193.57,512.21,197,512.13Z" transform="translate(-63 -58.5)"/><path class="cls-15" d="M290.05,512c3.49.07,6.59-2,6.56-4.65s-3.14-4.7-6.63-4.61-6.11,2.17-6.1,4.65S286.56,511.94,290.05,512Z" transform="translate(-63 -58.5)"/><path class="cls-9" d="M314.88,506a11.81,11.81,0,0,1,4.61,1.23l-2.32,10.26c-2.43.47-13.76,2.27-15.34-3.5C300.16,507.86,306.66,505.6,314.88,506Z" transform="translate(-63 -58.5)"/><g class="cls-4"><path class="cls-16" d="M302,514.46c2.08,5.17,12.82,3.46,15.17,3l0-.17c-.09.51-13.2,5.08-15-1.37A7.28,7.28,0,0,1,302,514.46Z" transform="translate(-63 -58.5)"/></g><path class="cls-9" d="M321,508.14a14.91,14.91,0,0,0-1.5-.94,11.81,11.81,0,0,0-4.61-1.23,22.62,22.62,0,0,0-9.64,1.28,4.64,4.64,0,0,1-.31-.79c-1.67-6.11,4.83-8.36,13.06-8a13.11,13.11,0,0,1,6.1,2.16c5.06,3.65,6.88,9.95,1.45,13.82A11.31,11.31,0,0,0,321,508.14Z" transform="translate(-63 -58.5)"/><g class="cls-4"><path class="cls-16" d="M319.49,507.2a11.81,11.81,0,0,0-4.61-1.23,22.62,22.62,0,0,0-9.64,1.28,4.2,4.2,0,0,1-.26-.65c2.43-1.47,6.31-2,10.67-1.82a12,12,0,0,1,4.61,1.23,15.4,15.4,0,0,1,1.49.94,11,11,0,0,1,4.66,6.81,10.15,10.15,0,0,1-.87.69,11.31,11.31,0,0,0-4.55-6.31A14.91,14.91,0,0,0,319.49,507.2Z" transform="translate(-63 -58.5)"/></g><path class="cls-9" d="M324.09,500.63a13.11,13.11,0,0,0-6.1-2.16c-4-.18-7.64.27-10.08,1.49a4.53,4.53,0,0,1-1.85-2.56c-1.67-6.11,4.83-8.37,13.05-8a13.08,13.08,0,0,1,6.1,2.17c4.71,3.39,6.61,9.08,2.48,13A12.67,12.67,0,0,0,324.09,500.63Z" transform="translate(-63 -58.5)"/><g class="cls-4"><path class="cls-16" d="M318.27,497.38a13.12,13.12,0,0,1,6.1,2.17,12.24,12.24,0,0,1,3.87,4.43c-.17.19-.35.38-.55.57a12.67,12.67,0,0,0-3.6-3.92,13.11,13.11,0,0,0-6.1-2.16c-4-.18-7.64.27-10.08,1.49a7,7,0,0,1-.66-.54C309.65,497.79,313.69,497.18,318.27,497.38Z" transform="translate(-63 -58.5)"/></g><path class="cls-9" d="M172.47,506a11.81,11.81,0,0,0-4.61,1.23l2.32,10.26c2.43.47,13.76,2.27,15.34-3.5C187.19,507.86,180.69,505.6,172.47,506Z" transform="translate(-63 -58.5)"/><g class="cls-4"><path class="cls-16" d="M185.35,514.46c-2.08,5.17-12.82,3.46-15.17,3l0-.17c.09.51,13.2,5.08,15-1.37A7.28,7.28,0,0,0,185.35,514.46Z" transform="translate(-63 -58.5)"/></g><path class="cls-9" d="M166.36,508.14a14.91,14.91,0,0,1,1.5-.94,11.81,11.81,0,0,1,4.61-1.23,22.62,22.62,0,0,1,9.64,1.28,4.64,4.64,0,0,0,.31-.79c1.67-6.11-4.83-8.36-13.06-8a13.11,13.11,0,0,0-6.1,2.16c-5.06,3.65-6.88,9.95-1.45,13.82A11.31,11.31,0,0,1,166.36,508.14Z" transform="translate(-63 -58.5)"/><g class="cls-4"><path class="cls-16" d="M167.86,507.2a11.81,11.81,0,0,1,4.61-1.23,22.62,22.62,0,0,1,9.64,1.28,4.2,4.2,0,0,0,.26-.65c-2.43-1.47-6.31-2-10.67-1.82a12,12,0,0,0-4.61,1.23,15.4,15.4,0,0,0-1.49.94,11,11,0,0,0-4.66,6.81,10.15,10.15,0,0,0,.87.69,11.31,11.31,0,0,1,4.55-6.31A14.91,14.91,0,0,1,167.86,507.2Z" transform="translate(-63 -58.5)"/></g><path class="cls-9" d="M163.26,500.63a13.11,13.11,0,0,1,6.1-2.16c4-.18,7.64.27,10.08,1.49a4.53,4.53,0,0,0,1.85-2.56c1.67-6.11-4.83-8.37-13-8a13.12,13.12,0,0,0-6.11,2.17c-4.7,3.39-6.6,9.08-2.47,13A12.67,12.67,0,0,1,163.26,500.63Z" transform="translate(-63 -58.5)"/><g class="cls-4"><path class="cls-16" d="M169.08,497.38a13.12,13.12,0,0,0-6.1,2.17,12.24,12.24,0,0,0-3.87,4.43c.17.19.35.38.55.57a12.67,12.67,0,0,1,3.6-3.92,13.11,13.11,0,0,1,6.1-2.16c4-.18,7.64.27,10.08,1.49a7,7,0,0,0,.66-.54C177.7,497.79,173.66,497.18,169.08,497.38Z" transform="translate(-63 -58.5)"/></g></g></g></svg>