<svg xmlns="http://www.w3.org/2000/svg" viewBox="0 0 1080 1080"><defs><style>.cls-1{fill:#39b54a;}</style></defs><g id="Layer_1" data-name="Layer 1"><rect width="1080" height="1080"/></g><g id="Layer_2" data-name="Layer 2"><path class="cls-1" d="M780,490.14a98.52,98.52,0,0,0-43.94-82,90.54,90.54,0,0,0-2.36-9.75L756,360.12l18.66,10.31L778,287.48l-68.42,47,16.12,8.91L628.34,511,525.15,383.67,419.61,579.78A63.45,63.45,0,0,1,363,537.13l.21,0c-4.13-20.33,1.35-37.17,15.83-48.65,21.79-17.32,12.52-45.73-17.44-21.94A71.66,71.66,0,0,0,336.48,505,78.44,78.44,0,0,1,328,469.64a79.28,79.28,0,0,1,79.3-79.28c2.47,0,4.77.5,7.18.73a76,76,0,0,1,105-42.71,64.48,64.48,0,0,1,89.77-8c-13.34,7.79-23.44,18.09-29.53,31.21-.47,1-.71,2-1.12,3l0,0c-7.31,13.77,16.64,30.16,26.58,8.8,4.37-9.44,12.54-16.75,24-22a61.57,61.57,0,0,1,14.9-2.07,65.23,65.23,0,0,1,48,21l14.48-24.91a93,93,0,0,0-62.52-24.09c-1.33,0-2.71,0-4.05.1a92.57,92.57,0,0,0-126.78-15.16,101.29,101.29,0,0,0-26.83-3.63,105.08,105.08,0,0,0-89.23,50.22,107.19,107.19,0,0,0-58.83,188.91,91,91,0,0,0,84.33,56.2,84.83,84.83,0,0,0,14.5-1.23A73.5,73.5,0,0,0,479,619.79a78.34,78.34,0,0,0,10.52-.73c12.18,24.05,34.05,45.85,55.43,67.13,19.85,19.76,40.31,40.19,47.53,57.49l20.29,48.84,29-44.24c22-33.58,18.43-69.39,6.9-98,.93-.4,1.83-.85,2.71-1.29a75,75,0,0,0,20.27,2.78,77.66,77.66,0,0,0,77.58-77.58,73.23,73.23,0,0,0-1-12A98.09,98.09,0,0,0,780,490.14Zm-64.46,61.42a49,49,0,0,1,5.7,22.61,49.55,49.55,0,0,1-49.55,49.55,48.72,48.72,0,0,1-23.39-6.14A47.36,47.36,0,0,1,602.19,627s49.17,55.68,16.2,105.92c-17.38-41.79-79.3-82.44-102.06-123.3,9.62-6.13,17.9-14.31,26.37-23,27.06-27.71,8.41-48.74-20.05-19.58a185.32,185.32,0,0,1-16.54,15.53,44.85,44.85,0,0,1-50.3,2.75L531,445.67,633,571.56l83-142.82a70.22,70.22,0,0,1-.52,122.82Z" transform="translate(0 0)"/></g></svg>